<mxfile host="app.diagrams.net" modified="2024-06-01T03:01:14.578Z" agent="Mozilla/5.0 (Macintosh; Intel Mac OS X 10_15_7) AppleWebKit/605.1.15 (KHTML, like Gecko) Version/15.6.1 Safari/605.1.15" etag="0YbxU5I40Y3DmSzsdh95" version="24.4.13" type="device">
  <diagram name="Page-1" id="Rh-HeQQqGaOiUNq3bMzJ">
    <mxGraphModel dx="658" dy="446" grid="1" gridSize="10" guides="1" tooltips="1" connect="1" arrows="1" fold="1" page="1" pageScale="1" pageWidth="1169" pageHeight="827" math="0" shadow="0">
      <root>
        <mxCell id="0" />
        <mxCell id="1" parent="0" />
        <object label="&lt;font style=&quot;font-size: 10px&quot;&gt;&lt;b&gt;%name%&lt;/b&gt;&lt;br style=&quot;font-size: 10px&quot;&gt;[Container]&lt;/font&gt;" placeholders="1" name="Order Management" id="rTCtbeZWByj3moGQfVYb-1">
          <mxCell style="rounded=0;whiteSpace=wrap;html=1;strokeColor=#828282;fillColor=none;fontColor=#404040;align=left;labelPosition=center;verticalLabelPosition=middle;verticalAlign=bottom;dashed=1;strokeWidth=2;perimeterSpacing=0;spacing=4;spacingTop=0;fontSize=10;container=0;rotatable=0;metaEdit=1;allowArrows=0;" parent="1" vertex="1">
            <mxGeometry x="270" y="80" width="545" height="360" as="geometry">
              <mxRectangle x="560" y="40" width="110" height="30" as="alternateBounds" />
            </mxGeometry>
          </mxCell>
        </object>
        <mxCell id="rTCtbeZWByj3moGQfVYb-15" style="rounded=0;orthogonalLoop=1;jettySize=auto;html=1;exitX=1;exitY=0.5;exitDx=0;exitDy=0;entryX=0;entryY=0.5;entryDx=0;entryDy=0;dashed=1;dashPattern=12 12;" parent="1" source="rTCtbeZWByj3moGQfVYb-2" target="rTCtbeZWByj3moGQfVYb-5" edge="1">
          <mxGeometry relative="1" as="geometry" />
        </mxCell>
        <mxCell id="rTCtbeZWByj3moGQfVYb-16" value="Uses" style="edgeLabel;html=1;align=center;verticalAlign=middle;resizable=0;points=[];" parent="rTCtbeZWByj3moGQfVYb-15" vertex="1" connectable="0">
          <mxGeometry x="0.149" y="2" relative="1" as="geometry">
            <mxPoint as="offset" />
          </mxGeometry>
        </mxCell>
        <mxCell id="rTCtbeZWByj3moGQfVYb-17" style="rounded=0;orthogonalLoop=1;jettySize=auto;html=1;exitX=1;exitY=0.5;exitDx=0;exitDy=0;entryX=0;entryY=0.5;entryDx=0;entryDy=0;dashed=1;dashPattern=12 12;" parent="1" source="rTCtbeZWByj3moGQfVYb-2" target="rTCtbeZWByj3moGQfVYb-6" edge="1">
          <mxGeometry relative="1" as="geometry" />
        </mxCell>
        <mxCell id="rTCtbeZWByj3moGQfVYb-18" value="Uses" style="edgeLabel;html=1;align=center;verticalAlign=middle;resizable=0;points=[];" parent="rTCtbeZWByj3moGQfVYb-17" vertex="1" connectable="0">
          <mxGeometry x="-0.0428" y="2" relative="1" as="geometry">
            <mxPoint x="-1" as="offset" />
          </mxGeometry>
        </mxCell>
        <object label="&lt;div&gt;&lt;span style=&quot;font-size: 14px&quot;&gt;&lt;b&gt;%name%&lt;/b&gt;&lt;/span&gt;&lt;/div&gt;&lt;div&gt;&lt;span style=&quot;font-size: 8px&quot;&gt;[Component: %technology%]&lt;/span&gt;&lt;/div&gt;&lt;div&gt;&lt;span style=&quot;font-size: 8px&quot;&gt;&lt;br&gt;&lt;/span&gt;&lt;/div&gt;&lt;div&gt;&lt;font size=&quot;1&quot;&gt;%description%&lt;/font&gt;&lt;/div&gt;" placeholders="1" name="Order Management FaÃ§ade" technology="Flask" description="Provides interface to modify order status." id="rTCtbeZWByj3moGQfVYb-2">
          <mxCell style="rounded=1;whiteSpace=wrap;html=1;fillColor=#99CCFF;fontColor=#404040;strokeColor=#6992BD;resizable=0;rotatable=0;strokeWidth=2;metaEdit=1;allowArrows=0;" parent="1" vertex="1">
            <mxGeometry x="290" y="200" width="180" height="120" as="geometry" />
          </mxCell>
        </object>
        <mxCell id="rTCtbeZWByj3moGQfVYb-13" style="rounded=0;orthogonalLoop=1;jettySize=auto;html=1;exitX=1;exitY=0.5;exitDx=0;exitDy=0;entryX=0;entryY=0.5;entryDx=0;entryDy=0;dashed=1;dashPattern=12 12;" parent="1" source="rTCtbeZWByj3moGQfVYb-5" edge="1">
          <mxGeometry relative="1" as="geometry">
            <mxPoint x="835" y="260" as="targetPoint" />
          </mxGeometry>
        </mxCell>
        <mxCell id="rTCtbeZWByj3moGQfVYb-14" value="View customer order" style="edgeLabel;html=1;align=center;verticalAlign=middle;resizable=1;points=[];whiteSpace=wrap;" parent="rTCtbeZWByj3moGQfVYb-13" vertex="1" connectable="0">
          <mxGeometry x="-0.2122" y="-1" relative="1" as="geometry">
            <mxPoint x="7" as="offset" />
          </mxGeometry>
        </mxCell>
        <object label="&lt;div&gt;&lt;span style=&quot;font-size: 14px&quot;&gt;&lt;b&gt;%name%&lt;/b&gt;&lt;/span&gt;&lt;/div&gt;&lt;div&gt;&lt;span style=&quot;font-size: 8px&quot;&gt;[Component: %technology%]&lt;/span&gt;&lt;/div&gt;&lt;div&gt;&lt;span style=&quot;font-size: 8px&quot;&gt;&lt;br&gt;&lt;/span&gt;&lt;/div&gt;&lt;div&gt;&lt;font size=&quot;1&quot;&gt;%description%&lt;/font&gt;&lt;/div&gt;" placeholders="1" name="View Orders" technology="Python" description="View a customer&#39;s order." id="rTCtbeZWByj3moGQfVYb-5">
          <mxCell style="rounded=1;whiteSpace=wrap;html=1;fillColor=#99CCFF;fontColor=#404040;strokeColor=#6992BD;resizable=0;rotatable=0;strokeWidth=2;metaEdit=1;allowArrows=0;" parent="1" vertex="1">
            <mxGeometry x="545" y="110" width="180" height="120" as="geometry" />
          </mxCell>
        </object>
        <mxCell id="rTCtbeZWByj3moGQfVYb-11" style="rounded=0;orthogonalLoop=1;jettySize=auto;html=1;exitX=1;exitY=0.5;exitDx=0;exitDy=0;dashed=1;dashPattern=12 12;" parent="1" source="rTCtbeZWByj3moGQfVYb-6" edge="1">
          <mxGeometry relative="1" as="geometry">
            <mxPoint x="835" y="300.5" as="targetPoint" />
          </mxGeometry>
        </mxCell>
        <mxCell id="rTCtbeZWByj3moGQfVYb-12" value="Update a customer&#39;s order" style="edgeLabel;html=1;align=center;verticalAlign=middle;resizable=1;points=[];whiteSpace=wrap;" parent="rTCtbeZWByj3moGQfVYb-11" vertex="1" connectable="0">
          <mxGeometry x="0.4154" y="1" relative="1" as="geometry">
            <mxPoint x="-32" y="16" as="offset" />
          </mxGeometry>
        </mxCell>
        <object label="&lt;div&gt;&lt;span style=&quot;font-size: 14px&quot;&gt;&lt;b&gt;%name%&lt;/b&gt;&lt;/span&gt;&lt;/div&gt;&lt;div&gt;&lt;span style=&quot;font-size: 8px&quot;&gt;[Component: %technology%]&lt;/span&gt;&lt;/div&gt;&lt;div&gt;&lt;span style=&quot;font-size: 8px&quot;&gt;&lt;br&gt;&lt;/span&gt;&lt;/div&gt;&lt;div&gt;&lt;font size=&quot;1&quot;&gt;%description%&lt;/font&gt;&lt;/div&gt;" placeholders="1" name="Set Order Status" technology="Python" description="Modify a customer&#39;s order status." id="rTCtbeZWByj3moGQfVYb-6">
          <mxCell style="rounded=1;whiteSpace=wrap;html=1;fillColor=#99CCFF;fontColor=#404040;strokeColor=#6992BD;resizable=0;rotatable=0;strokeWidth=2;metaEdit=1;allowArrows=0;" parent="1" vertex="1">
            <mxGeometry x="545" y="290" width="180" height="120" as="geometry" />
          </mxCell>
        </object>
        <mxCell id="rTCtbeZWByj3moGQfVYb-9" style="edgeStyle=orthogonalEdgeStyle;rounded=0;orthogonalLoop=1;jettySize=auto;html=1;dashed=1;dashPattern=8 8;exitX=1;exitY=0.5;exitDx=0;exitDy=0;" parent="1" source="pp0MUhdfuHBuM5YBnjXT-2" target="rTCtbeZWByj3moGQfVYb-2" edge="1">
          <mxGeometry relative="1" as="geometry">
            <mxPoint x="200" y="260" as="sourcePoint" />
          </mxGeometry>
        </mxCell>
        <mxCell id="rTCtbeZWByj3moGQfVYb-10" value="Send Purchase Request" style="edgeLabel;html=1;align=center;verticalAlign=middle;resizable=1;points=[];whiteSpace=wrap;" parent="rTCtbeZWByj3moGQfVYb-9" vertex="1" connectable="0">
          <mxGeometry x="-0.02" y="-1" relative="1" as="geometry">
            <mxPoint as="offset" />
          </mxGeometry>
        </mxCell>
        <object label="&lt;div&gt;&lt;b style=&quot;font-size: 14px&quot;&gt;%name%&lt;/b&gt;&lt;br&gt;&lt;/div&gt;&lt;div style=&quot;font-size: 12px&quot;&gt;&lt;font style=&quot;font-size: 8px&quot;&gt;[Container: %technology%]&lt;/font&gt;&lt;/div&gt;&lt;div style=&quot;font-size: 8px&quot;&gt;&lt;font style=&quot;line-height: 9.6px&quot;&gt;%technology-img-tag%&lt;br&gt;&lt;/font&gt;&lt;/div&gt;&lt;div&gt;&lt;font&gt;%description%&lt;/font&gt;&lt;/div&gt;" placeholders="1" name="Application Database" description="Stores customer credentials, foods and orders." technology="AWS RDS PostgreSQL" technology-img-tag="&lt;img src=&quot;https://upload.wikimedia.org/wikipedia/commons/2/29/Postgresql_elephant.svg&quot; width=&quot;24&quot; height=&quot;24&quot;&gt;" id="rTCtbeZWByj3moGQfVYb-8">
          <mxCell style="shape=cylinder;whiteSpace=wrap;html=1;boundedLbl=1;backgroundOutline=1;strokeColor=#CCCCCC;strokeWidth=2;fillColor=#66FFB3;fontSize=9;fontColor=#404040;align=center;resizable=0;rotatable=0;verticalAlign=middle;spacing=2;metaEdit=1;allowArrows=0;" parent="1" vertex="1">
            <mxGeometry x="840" y="200" width="180" height="120" as="geometry" />
          </mxCell>
        </object>
        <object label="&lt;div&gt;&lt;span style=&quot;font-size: 14px&quot;&gt;&lt;b&gt;%name%&lt;/b&gt;&lt;/span&gt;&lt;/div&gt;&lt;div&gt;&lt;span style=&quot;font-size: 8px&quot;&gt;[Component: %technology%]&lt;/span&gt;&lt;/div&gt;&lt;div&gt;&lt;span style=&quot;font-size: 8px&quot;&gt;&lt;br&gt;&lt;/span&gt;&lt;/div&gt;&lt;div&gt;&lt;font size=&quot;1&quot;&gt;%description%&lt;/font&gt;&lt;/div&gt;" placeholders="1" name="" technology="" description="" id="pp0MUhdfuHBuM5YBnjXT-2">
          <mxCell style="rounded=1;whiteSpace=wrap;html=1;fillColor=#CCE5FF;strokeColor=none;resizable=0;rotatable=0;strokeWidth=2;metaEdit=1;allowArrows=0;fontColor=#ffffff;" vertex="1" parent="1">
            <mxGeometry x="10" y="200" width="180" height="120" as="geometry" />
          </mxCell>
        </object>
        <object label="&lt;div&gt;&lt;span style=&quot;font-size: 14px&quot;&gt;&lt;b&gt;%name%&lt;/b&gt;&lt;/span&gt;&lt;/div&gt;&lt;div&gt;&lt;span style=&quot;font-size: 8px&quot;&gt;[Container: %technology%]&lt;/span&gt;&lt;/div&gt;&lt;div&gt;&lt;span style=&quot;font-size: 8px&quot;&gt;%technology-img-tag%&lt;/span&gt;&lt;/div&gt;&lt;div&gt;&lt;font size=&quot;1&quot;&gt;%description%&lt;/font&gt;&lt;/div&gt;" placeholders="1" name="Admin Application" technology="React" description="Interface to manage orders." technology-img-tag="&lt;img src=&quot;https://upload.wikimedia.org/wikipedia/commons/3/30/React_Logo_SVG.svg&quot; width=&quot;24&quot; height=&quot;24&quot;&gt;" id="pp0MUhdfuHBuM5YBnjXT-3">
          <mxCell style="rounded=1;whiteSpace=wrap;html=1;fillColor=#99CCFF;fontColor=#404040;strokeColor=none;resizable=1;rotatable=0;strokeWidth=2;metaEdit=1;allowArrows=0;" vertex="1" parent="1">
            <mxGeometry x="18.75" y="230" width="162.5" height="80" as="geometry" />
          </mxCell>
        </object>
        <mxCell id="pp0MUhdfuHBuM5YBnjXT-5" value="" style="rounded=1;whiteSpace=wrap;html=1;fillColor=#99CCFF;fontColor=#ffffff;strokeColor=none;glass=0;" vertex="1" parent="1">
          <mxGeometry x="81.25" y="210" width="100" height="10" as="geometry" />
        </mxCell>
        <mxCell id="pp0MUhdfuHBuM5YBnjXT-10" value="" style="ellipse;whiteSpace=wrap;html=1;fillColor=#99CCFF;strokeColor=none;" vertex="1" parent="1">
          <mxGeometry x="60" y="210" width="10" height="10" as="geometry" />
        </mxCell>
        <mxCell id="pp0MUhdfuHBuM5YBnjXT-11" value="" style="ellipse;whiteSpace=wrap;html=1;fillColor=#99CCFF;strokeColor=none;" vertex="1" parent="1">
          <mxGeometry x="40" y="210" width="10" height="10" as="geometry" />
        </mxCell>
        <mxCell id="pp0MUhdfuHBuM5YBnjXT-12" value="" style="ellipse;whiteSpace=wrap;html=1;fillColor=#99CCFF;strokeColor=none;" vertex="1" parent="1">
          <mxGeometry x="18.75" y="210" width="10" height="10" as="geometry" />
        </mxCell>
      </root>
    </mxGraphModel>
  </diagram>
</mxfile>
